<svg xmlns="http://www.w3.org/2000/svg" width="1400" height="820" viewBox="0 0 1400 820" role="img" aria-labelledby="title description">
  <title id="title">Future tickets parallel execution graph</title>
  <desc id="description">Ten tickets can start immediately. Tickets 02, 08, and 11 become available after tickets 01, 04, and 10. Quota Doctor starts after tickets 09, 10, 11, 12, and 13.</desc>
  <defs>
    <style>
      .background { fill: #f8fafc; }
      .group { fill: #ffffff; stroke: #cbd5e1; stroke-width: 2; stroke-dasharray: 7 7; }
      .group-title { fill: #334155; font: 700 18px -apple-system, BlinkMacSystemFont, "Segoe UI", sans-serif; }
      .group-note { fill: #64748b; font: 14px -apple-system, BlinkMacSystemFont, "Segoe UI", sans-serif; }
      .node { stroke-width: 2; rx: 10; }
      .now { fill: #ecfdf5; stroke: #10b981; }
      .next { fill: #fffbeb; stroke: #f59e0b; }
      .final { fill: #f5f3ff; stroke: #8b5cf6; }
      .number { fill: #0f172a; font: 700 16px -apple-system, BlinkMacSystemFont, "Segoe UI", sans-serif; }
      .label { fill: #334155; font: 14px -apple-system, BlinkMacSystemFont, "Segoe UI", sans-serif; }
      .edge { fill: none; stroke: #64748b; stroke-width: 2.5; }
      .join { fill: none; stroke: #8b5cf6; stroke-width: 2.5; }
      .legend { fill: #475569; font: 14px -apple-system, BlinkMacSystemFont, "Segoe UI", sans-serif; }
      .heading { fill: #0f172a; font: 700 26px -apple-system, BlinkMacSystemFont, "Segoe UI", sans-serif; }
      .subheading { fill: #475569; font: 15px -apple-system, BlinkMacSystemFont, "Segoe UI", sans-serif; }
    </style>
    <marker id="arrow" markerWidth="10" markerHeight="10" refX="8" refY="3" orient="auto" markerUnits="strokeWidth">
      <path d="M0,0 L0,6 L9,3 z" fill="#64748b"/>
    </marker>
    <marker id="arrow-final" markerWidth="10" markerHeight="10" refX="8" refY="3" orient="auto" markerUnits="strokeWidth">
      <path d="M0,0 L0,6 L9,3 z" fill="#8b5cf6"/>
    </marker>
  </defs>

  <rect class="background" width="1400" height="820"/>
  <text class="heading" x="40" y="42">Future Tickets: Parallel Execution</text>
  <text class="subheading" x="40" y="68">Arrows represent hard dependencies, not priority.</text>

  <rect class="group" x="35" y="92" width="570" height="650" rx="16"/>
  <text class="group-title" x="60" y="125">Can start now</text>
  <text class="group-note" x="60" y="148">Maximum initial concurrency: 10</text>

  <rect class="group" x="655" y="92" width="345" height="650" rx="16"/>
  <text class="group-title" x="680" y="125">Individually unblocked</text>
  <text class="group-note" x="680" y="148">These do not wait for each other</text>

  <rect class="group" x="1050" y="92" width="315" height="650" rx="16"/>
  <text class="group-title" x="1075" y="125">Final join</text>
  <text class="group-note" x="1075" y="148">Starts after all five inputs</text>

  <!-- Immediate work, dependency-bearing column -->
  <g>
    <rect class="node now" x="60" y="175" width="240" height="72"/>
    <text class="number" x="78" y="202">01</text>
    <text class="label" x="78" y="225">Stable signed distribution</text>

    <rect class="node now" x="60" y="270" width="240" height="72"/>
    <text class="number" x="78" y="297">04</text>
    <text class="label" x="78" y="320">Refresh performance profiling</text>

    <rect class="node now" x="60" y="365" width="240" height="72"/>
    <text class="number" x="78" y="392">10</text>
    <text class="label" x="78" y="415">Provider health and history</text>

    <rect class="node now" x="60" y="460" width="240" height="72"/>
    <text class="number" x="78" y="487">09</text>
    <text class="label" x="78" y="510">Historical usage trends</text>

    <rect class="node now" x="60" y="555" width="240" height="72"/>
    <text class="number" x="78" y="582">12</text>
    <text class="label" x="78" y="605">Budget and rate-limit alerts</text>

    <rect class="node now" x="60" y="650" width="240" height="72"/>
    <text class="number" x="78" y="677">13</text>
    <text class="label" x="78" y="700">Local usage event collector</text>
  </g>

  <!-- Immediate independent work -->
  <g>
    <rect class="node now" x="335" y="175" width="240" height="72"/>
    <text class="number" x="353" y="202">03</text>
    <text class="label" x="353" y="225">Native app UI automation</text>

    <rect class="node now" x="335" y="270" width="240" height="72"/>
    <text class="number" x="353" y="297">05</text>
    <text class="label" x="353" y="320">Continuous integration</text>

    <rect class="node now" x="335" y="365" width="240" height="72"/>
    <text class="number" x="353" y="392">06</text>
    <text class="label" x="353" y="415">App Sandbox decision</text>

    <rect class="node now" x="335" y="460" width="240" height="72"/>
    <text class="number" x="353" y="487">07</text>
    <text class="label" x="353" y="510">Release migration QA</text>
  </g>

  <!-- Work with one prerequisite -->
  <g>
    <rect class="node next" x="680" y="175" width="290" height="72"/>
    <text class="number" x="698" y="202">02</text>
    <text class="label" x="698" y="225">Real-account Keychain QA</text>

    <rect class="node next" x="680" y="270" width="290" height="72"/>
    <text class="number" x="698" y="297">08</text>
    <text class="label" x="698" y="320">Configurable refresh cadence</text>

    <rect class="node next" x="680" y="365" width="290" height="72"/>
    <text class="number" x="698" y="392">11</text>
    <text class="label" x="698" y="415">Privacy-safe diagnostic export</text>
  </g>

  <!-- Final work -->
  <g>
    <rect class="node final" x="1080" y="460" width="255" height="90"/>
    <text class="number" x="1100" y="494">14</text>
    <text class="label" x="1100" y="520">Quota Doctor</text>
  </g>

  <!-- Single-prerequisite edges -->
  <path class="edge" d="M300 211 H680" marker-end="url(#arrow)"/>
  <path class="edge" d="M300 306 H680" marker-end="url(#arrow)"/>
  <path class="edge" d="M300 401 H680" marker-end="url(#arrow)"/>

  <!-- Quota Doctor prerequisite join -->
  <path class="join" d="M970 401 H1020 V505 H1080" marker-end="url(#arrow-final)"/>
  <path class="join" d="M300 401 H625 V755 H1020 V505"/>
  <path class="join" d="M300 496 H625"/>
  <path class="join" d="M300 591 H625"/>
  <path class="join" d="M300 686 H625"/>
  <circle cx="625" cy="401" r="4" fill="#8b5cf6"/>
  <circle cx="625" cy="496" r="4" fill="#8b5cf6"/>
  <circle cx="625" cy="591" r="4" fill="#8b5cf6"/>
  <circle cx="625" cy="686" r="4" fill="#8b5cf6"/>
  <circle cx="1020" cy="505" r="4" fill="#8b5cf6"/>

  <!-- Legend -->
  <rect class="node now" x="40" y="772" width="20" height="20" rx="4"/>
  <text class="legend" x="70" y="788">Start now</text>
  <rect class="node next" x="170" y="772" width="20" height="20" rx="4"/>
  <text class="legend" x="200" y="788">Waits for one ticket</text>
  <rect class="node final" x="380" y="772" width="20" height="20" rx="4"/>
  <text class="legend" x="410" y="788">Waits for five tickets</text>
</svg>
